<svg width="20" height="20" viewBox="0 0 20 20" fill="none" xmlns="http://www.w3.org/2000/svg">
<g clip-path="url(#clip0_114_4354)">
<path d="M10 20C15.5228 20 20 15.5228 20 10C20 4.47715 15.5228 0 10 0C4.47715 0 0 4.47715 0 10C0 15.5228 4.47715 20 10 20Z" fill="#193028"/>
<path d="M9.97727 4.84082C10.6591 4.84082 11.2045 5.38627 11.2045 6.06809C11.2045 6.74991 10.6591 7.29537 9.97727 7.29537C9.29545 7.29537 8.75 6.74991 8.75 6.06809C8.75 5.38627 9.29545 4.84082 9.97727 4.84082ZM11.0682 8.60218V14.6931H8.88636V8.60218H11.0682Z" fill="white"/>
</g>
<defs>
<clipPath id="clip0_114_4354">
<rect width="20" height="20" fill="white"/>
</clipPath>
</defs>
</svg>
